<svg width="512" height="512" viewBox="0 0 512 512" fill="none" xmlns="http://www.w3.org/2000/svg">
<rect width="512" height="512" rx="55" fill="url(#paint0_linear)"/>
<rect x="59" y="124" width="394" height="265" rx="22" fill="white"/>
<rect x="59" y="124" width="394" height="43" rx="21.5" fill="#333333"/>
<rect x="59" y="144" width="394" height="23" fill="#333333"/>
<circle cx="423" cy="145" r="11" fill="#C4C4C4"/>
<circle cx="396" cy="145" r="11" fill="#C4C4C4"/>
<circle cx="369" cy="145" r="11" fill="#C4C4C4"/>
<rect x="87" y="207" width="187" height="6" rx="3" fill="#333333"/>
<rect x="87" y="246" width="187" height="6" rx="3" fill="#333333"/>
<rect x="87" y="285" width="187" height="6" rx="3" fill="#333333"/>
<rect x="87" y="324" width="187" height="6" rx="3" fill="#333333"/>
<circle cx="374" cy="265" r="59" fill="#42B86E"/>
<rect x="350.801" y="257.439" width="40" height="19" rx="8" transform="rotate(34.6425 350.801 257.439)" fill="white"/>
<rect x="408.153" y="244.801" width="62" height="19" rx="8" transform="rotate(124.643 408.153 244.801)" fill="white"/>
<defs>
<linearGradient id="paint0_linear" x1="400" y1="-8.43033e-06" x2="57" y2="512" gradientUnits="userSpaceOnUse">
<stop offset="0.208333" stop-color="#2193B0"/>
<stop offset="1" stop-color="#6DD5ED"/>
</linearGradient>
</defs>
</svg>
