<svg width="521" height="525" viewBox="0 0 521 525" fill="none" xmlns="http://www.w3.org/2000/svg">
<rect x="9" y="13" width="512" height="512" rx="55" fill="url(#paint0_linear)"/>
<path d="M197.922 215.094C198.766 199.062 204.438 185.984 214.938 175.859C225.531 165.641 240.297 160.531 259.234 160.531C276.766 160.531 291.062 165.359 302.125 175.016C313.281 184.672 318.859 196.812 318.859 211.438C318.859 231.969 309.062 248.141 289.469 259.953C280.656 265.203 274.609 270.172 271.328 274.859C268.141 279.547 266.547 285.641 266.547 293.141V302.281H241.938V289.344C241.844 280.156 244.047 272.188 248.547 265.438C253.141 258.688 260.312 252.406 270.062 246.594C278.312 241.531 284.125 236.469 287.5 231.406C290.969 226.344 292.703 220.109 292.703 212.703C292.703 203.891 289.516 196.672 283.141 191.047C276.859 185.328 268.562 182.469 258.25 182.469C247.656 182.469 239.125 185.375 232.656 191.188C226.281 197 222.719 204.969 221.969 215.094H197.922ZM254.312 366.406C249.812 366.406 246.016 364.859 242.922 361.766C239.828 358.672 238.281 354.875 238.281 350.375C238.281 345.781 239.828 341.984 242.922 338.984C246.016 335.891 249.812 334.344 254.312 334.344C258.906 334.344 262.703 335.891 265.703 338.984C268.797 341.984 270.344 345.781 270.344 350.375C270.344 354.875 268.797 358.672 265.703 361.766C262.703 364.859 258.906 366.406 254.312 366.406Z" fill="white"/>
<defs>
<linearGradient id="paint0_linear" x1="265" y1="13" x2="265" y2="525" gradientUnits="userSpaceOnUse">
<stop stop-color="#C4C4C4"/>
<stop offset="0.0001" stop-color="#434343"/>
<stop offset="1"/>
</linearGradient>
</defs>
</svg>
