<svg id="Livello_1" data-name="Livello 1" xmlns="http://www.w3.org/2000/svg" viewBox="0 0 570.03 655.06"><defs><style>.cls-1{fill:#45b8d5;}.cls-2{fill:#1c7ba2;}</style></defs><path class="cls-1" d="M496,125.12c22.32,13.47,44.73,26.81,66.92,40.49,4.9,3,7.08,8.18,7.08,14.11q0,64,.07,128c0,3.69-1.54,5.71-4.51,7.53q-50.53,30.87-101,61.91c-29.41,18.07-58.92,36-88.13,54.38-6.49,4.09-11.27,4.05-17.91,0-61.31-37.14-122.88-73.86-184.33-110.79-4-2.42-7.21-2.95-11.66-.18-28.3,17.64-56.8,34.95-85.31,52.26-3.24,2-4.36,4.34-4.32,8.11.18,21,.12,42,.13,63q-.12,42.22-.25,84.46Q40.35,508.89,7.94,489.42C2.21,486,0,480.8,0,474.37c0-44.64-.08-89.29.2-133.94,0-2.5,2.38-5.89,4.63-7.34,14.39-9.22,29.05-18,43.62-26.95q56.87-34.89,113.67-69.87c4.2-2.61,7.36-2.33,11.35.11q68,41.47,136.09,82.75c17.86,10.85,35.82,21.56,53.6,32.54,2.89,1.79,4.77.93,7.13-.52,38.63-23.64,77.15-47.47,116.05-70.67,7.26-4.34,10.25-8.67,9.85-17.35-.83-17.95-.24-36-.24-54Z"/><path class="cls-2" d="M496,125.12v84c-19.65-12.07-39.79-23.44-58.77-36.49-10.14-7-17.31-6.1-27.3.21-36,22.72-72.64,44.32-108.93,66.52-4.2,2.56-7.51,2.79-11.75.16-20.13-12.46-40.42-24.66-60.64-37a19.67,19.67,0,0,1-2.24-2.09L353.79,123c-7.93-4.86-15.05-9.25-22.2-13.58-14.17-8.56-28.47-16.9-42.46-25.74-4-2.52-6.73-2.23-10.53.1q-82.31,50.55-164.78,100.85c-12,7.33-23.94,14.76-36.07,21.89-3,1.77-4,3.75-4,7.14.16,16.83,0,33.66.12,50.49C74,269,72.46,272.38,68,275c-22.06,13.08-43.93,26.47-65.88,39.74a11.36,11.36,0,0,1-1.86.61c0-.88-.13-1.6-.13-2.31,0-43.82.1-87.64-.08-131.46,0-6.69,2.16-10.9,8-14.48,56.25-34.35,112.3-69,168.48-103.49,33.6-20.61,67.39-40.93,101-61.55,4.29-2.63,7.39-2.92,12-.13q79.9,48.26,160.13,96C465,107.11,480.52,116.07,496,125.12Z"/><path class="cls-2" d="M72.77,528.37q.12-42.22.25-84.46,17.64,10.57,35.28,21.17c6.81,4.09,13.68,8.1,20.39,12.35,2.85,1.81,4.92,1.87,8,0,30.79-18.86,61.74-37.44,92.58-56.2,3-1.83,5.55-2.23,8.64-.31,22.9,14.27,45.85,28.45,69.73,43.25L209.84,525.6a38.83,38.83,0,0,0,3.25,2.48c23.22,14.09,46.5,28.08,69.63,42.32,3.6,2.21,6.21,2.16,9.76,0q47.37-29.14,94.94-58,52.09-31.47,104.42-62.53A5.94,5.94,0,0,0,495.2,444q-.21-30.24,0-60.49c0-1.93,1.2-4.7,2.72-5.62,22.78-13.82,45.71-27.39,68.62-41a25.94,25.94,0,0,1,2.5-1.07,32.2,32.2,0,0,1,.77,4.84q.06,68.75.08,137.48c0,4.43-2.1,7.07-5.57,9.21-19.45,12-38.83,24.12-58.34,36q-85.66,52.26-171.41,104.35c-14.44,8.76-29.19,17-43.68,25.69-3.84,2.3-6.8,2.18-10.75-.22q-69.36-42.12-139-83.85Q107,548.78,72.77,528.37Z"/></svg>